<?xml version="1.0" standalone="no"?><!DOCTYPE svg PUBLIC "-//W3C//DTD SVG 1.1//EN" "http://www.w3.org/Graphics/SVG/1.1/DTD/svg11.dtd"><svg t="1597471829675" class="icon" viewBox="0 0 1024 1024" version="1.1" xmlns="http://www.w3.org/2000/svg" p-id="4594" xmlns:xlink="http://www.w3.org/1999/xlink" width="200" height="200"><defs><style type="text/css"></style></defs><path d="M746.112 497.76A132.48 132.48 0 0 0 784 404.752C784 331.424 724.784 272 651.776 272a132.16 132.16 0 0 0-118.304 73.392c-8.832 17.712-34.112 17.712-42.944 0A132.16 132.16 0 0 0 372.224 272C299.2 272 240 331.424 240 404.752c0 35.2 13.68 68.16 37.712 92.832 1.84 1.904 3.312 4 4.384 6.192L504.72 741.44l238.592-240.24c0.8-1.2 1.744-2.352 2.8-3.44zM192 404.752C192 304.944 272.672 224 372.224 224c55.344 0 106.192 25.248 139.776 66.624A179.872 179.872 0 0 1 651.776 224C751.328 224 832 304.944 832 404.752c0 46.192-17.376 89.68-48 122.816a24.48 24.48 0 0 1-3.248 4.048l-259.52 261.296a24 24 0 0 1-34.544-0.512l-244.752-261.28a24.176 24.176 0 0 1-4.112-5.936A180.448 180.448 0 0 1 192 404.752z" p-id="4595"></path></svg>