<?xml version="1.0" standalone="no"?><!DOCTYPE svg PUBLIC "-//W3C//DTD SVG 1.1//EN" "http://www.w3.org/Graphics/SVG/1.1/DTD/svg11.dtd"><svg t="1597308859759" class="icon" viewBox="0 0 1040 1024" version="1.1" xmlns="http://www.w3.org/2000/svg" p-id="7808" xmlns:xlink="http://www.w3.org/1999/xlink" width="203.125" height="200"><defs><style type="text/css"></style></defs><path d="M816.992 309.536c1.568-0.96 5.6-1.76 9.056-0.688a12.96 12.96 0 0 1 6.944 5.584 186.816 186.816 0 0 1 21.184 86.688c0 47.952-18.112 93.12-50 127.488a24.48 24.48 0 0 1-3.312 4.128L529.28 805.296a24 24 0 0 1-34.496-0.496l-77.68-82.672a16 16 0 0 1 0.704-22.624l11.664-10.96a16 16 0 0 1 22.608 0.704l60.704 64.608 250.576-251.52c0.832-1.216 1.776-2.4 2.88-3.504a138.96 138.96 0 0 0 39.92-97.712 138.912 138.912 0 0 0-13.488-59.984c-0.96-2-2.56-7.712-1.84-11.488a11.712 11.712 0 0 1 5.552-7.536l1.28-0.8 19.312-11.776z m-38.64-96.912a16 16 0 0 1 22.64 0.128l11.248 11.376a16 16 0 0 1-0.144 22.624l-501.12 495.424a16 16 0 0 1-22.624-0.128l-11.248-11.376a16 16 0 0 1 0.128-22.624z m-110.24-2.176c7.36 0 14.72 0.4 21.968 1.216a13.84 13.84 0 0 1 3.968 1.344 14.496 14.496 0 0 1 4.8 4.64c1.904 2.656 1.44 8.16 1.376 8.496l-3.92 22.112c-0.048 0.288-1.056 6.288-3.84 8.592-3.296 2.672-9.328 2.352-9.6 2.32a148.16 148.16 0 0 0-135.12 60.992l-19.472 27.04-19.472-27.04a148.16 148.16 0 0 0-120.368-61.712c-81.968 0-148.432 66.656-148.432 148.896 0 37.248 13.696 72.64 38.464 100.016l54.832 59.776a16 16 0 0 1-0.864 22.496l-11.744 11.008a16 16 0 0 1-22.672-0.8c-37.28-40.16-56.4-61.072-57.36-62.752A196.576 196.576 0 0 1 192 407.344c0-108.72 87.936-196.896 196.432-196.896 53.232 0 103.36 21.504 139.84 58.56a196.048 196.048 0 0 1 139.84-58.56z" p-id="7809"></path></svg>