<?xml version="1.0" standalone="no"?><!DOCTYPE svg PUBLIC "-//W3C//DTD SVG 1.1//EN" "http://www.w3.org/Graphics/SVG/1.1/DTD/svg11.dtd"><svg t="1597558970506" class="icon" viewBox="0 0 1024 1024" version="1.1" xmlns="http://www.w3.org/2000/svg" p-id="11419" xmlns:xlink="http://www.w3.org/1999/xlink" width="200" height="200"><defs><style type="text/css"></style></defs><path d="M411.409 204.8c0-56.457 45.943-102.4 102.4-102.4s102.4 45.943 102.4 102.4-45.943 102.4-102.4 102.4-102.4-45.943-102.4-102.4z" p-id="11420"></path><path d="M411.409 512c0-56.457 45.943-102.4 102.4-102.4s102.4 45.943 102.4 102.4-45.943 102.4-102.4 102.4-102.4-45.943-102.4-102.4z" p-id="11421"></path><path d="M411.409 819.2c0-56.457 45.943-102.4 102.4-102.4s102.4 45.943 102.4 102.4-45.943 102.4-102.4 102.4-102.4-45.943-102.4-102.4z" p-id="11422"></path></svg>